<svg xmlns="http://www.w3.org/2000/svg" xmlns:xlink="http://www.w3.org/1999/xlink" viewBox="0 0 1455.19 727.21"><defs><style>.cls-1{mask:url(#mask);}.cls-2,.cls-4,.cls-6,.cls-8{mix-blend-mode:multiply;}.cls-2{fill:url(#linear-gradient);}.cls-3{mask:url(#mask-2);}.cls-4{fill:url(#linear-gradient-2);}.cls-5{mask:url(#mask-3);}.cls-6{fill:url(#linear-gradient-3);}.cls-7{mask:url(#mask-4);}.cls-8{fill:url(#linear-gradient-4);}.cls-9{fill:url(#linear-gradient-5);}.cls-10{fill:#eaebf2;}.cls-11{fill:url(#linear-gradient-6);}.cls-12{fill:#a1acf8;}.cls-13{fill:#b4bdff;}.cls-14{fill:#fff;}.cls-15{fill:url(#linear-gradient-7);}.cls-16{fill:url(#linear-gradient-8);}.cls-17{fill:url(#linear-gradient-9);}.cls-18{fill:#85f2d3;}.cls-19{fill:#5996ff;}.cls-20{fill:url(#linear-gradient-10);}.cls-21{fill:url(#linear-gradient-11);}.cls-22{fill:url(#linear-gradient-12);}.cls-23{fill:#3fc7a3;opacity:0.46;}.cls-24{opacity:0.53;}.cls-25{fill:#68d8bd;}.cls-26{mask:url(#mask-5);}.cls-27,.cls-57,.cls-64,.cls-75{opacity:0.44;}.cls-27{fill:url(#linear-gradient-13);}.cls-28{fill:url(#linear-gradient-14);}.cls-29{fill:url(#linear-gradient-15);}.cls-30{fill:#3661ea;}.cls-31{fill:#11253f;}.cls-32{fill:url(#linear-gradient-16);}.cls-33{fill:url(#linear-gradient-17);}.cls-34{fill:#abb0cb;}.cls-35{fill:#17283d;}.cls-36{fill:#507aee;}.cls-37{fill:url(#linear-gradient-18);}.cls-38{fill:url(#linear-gradient-19);}.cls-39{fill:#142c4a;}.cls-40{fill:url(#linear-gradient-20);}.cls-41{fill:#051225;}.cls-42{fill:#979ebe;}.cls-43{fill:url(#linear-gradient-21);}.cls-44{fill:#183457;}.cls-45{fill:url(#linear-gradient-22);}.cls-46{fill:url(#linear-gradient-23);}.cls-47{fill:#0aa67d;}.cls-48{fill:url(#linear-gradient-24);}.cls-49{fill:#2f56d3;}.cls-50{fill:url(#linear-gradient-25);}.cls-51{fill:#9ea5c3;}.cls-52{fill:#0fac85;}.cls-53{fill:#0b192d;}.cls-54{fill:url(#linear-gradient-26);}.cls-55{fill:#b7baf8;}.cls-56{mask:url(#mask-6);}.cls-57{fill:url(#linear-gradient-27);}.cls-58{fill:#00ba78;}.cls-59{fill:url(#linear-gradient-28);}.cls-60{fill:#324d74;}.cls-61{fill:#009c6b;}.cls-62{fill:#f1f2f7;}.cls-63{mask:url(#mask-7);}.cls-64{fill:url(#linear-gradient-29);}.cls-65{fill:url(#linear-gradient-30);}.cls-66{fill:#b0aed9;}.cls-67{fill:url(#linear-gradient-31);}.cls-68{fill:url(#linear-gradient-32);}.cls-69{fill:url(#linear-gradient-33);}.cls-70{fill:url(#linear-gradient-34);}.cls-71{fill:url(#linear-gradient-35);}.cls-72{fill:url(#linear-gradient-36);}.cls-73{fill:url(#linear-gradient-37);}.cls-74{mask:url(#mask-8);}.cls-75{fill:url(#linear-gradient-38);}.cls-76{fill:url(#linear-gradient-39);}.cls-77{fill:url(#linear-gradient-40);}.cls-78{fill:url(#linear-gradient-41);}.cls-79{fill:#73719f;}.cls-80{fill:url(#linear-gradient-42);}.cls-81{fill:url(#linear-gradient-43);}.cls-82{opacity:0.75;fill:url(#linear-gradient-44);}.cls-83{fill:url(#linear-gradient-45);}.cls-84{fill:url(#linear-gradient-46);}.cls-85{filter:url(#luminosity-noclip-8);}.cls-86{filter:url(#luminosity-noclip-7);}.cls-87{filter:url(#luminosity-noclip-6);}.cls-88{filter:url(#luminosity-noclip-5);}.cls-89{filter:url(#luminosity-noclip-4);}.cls-90{filter:url(#luminosity-noclip-3);}.cls-91{filter:url(#luminosity-noclip-2);}.cls-92{filter:url(#luminosity-noclip);}</style><filter id="luminosity-noclip" x="801.61" y="-8542.2" width="141.61" height="32766" filterUnits="userSpaceOnUse" color-interpolation-filters="sRGB"><feFlood flood-color="#fff" result="bg"/><feBlend in="SourceGraphic" in2="bg"/></filter><mask id="mask" x="801.61" y="-8542.2" width="141.61" height="32766" maskUnits="userSpaceOnUse"><g class="cls-92"/></mask><linearGradient id="linear-gradient" x1="726.46" y1="651.11" x2="1008.45" y2="724.12" gradientUnits="userSpaceOnUse"><stop offset="0"/><stop offset="1" stop-color="#fff"/></linearGradient><filter id="luminosity-noclip-2" x="982.03" y="-8542.2" width="141.61" height="32766" filterUnits="userSpaceOnUse" color-interpolation-filters="sRGB"><feFlood flood-color="#fff" result="bg"/><feBlend in="SourceGraphic" in2="bg"/></filter><mask id="mask-2" x="982.03" y="-8542.2" width="141.61" height="32766" maskUnits="userSpaceOnUse"><g class="cls-91"/></mask><linearGradient id="linear-gradient-2" x1="906.89" y1="626.47" x2="1188.87" y2="699.49" xlink:href="#linear-gradient"/><filter id="luminosity-noclip-3" x="681.43" y="-8542.2" width="97.57" height="32766" filterUnits="userSpaceOnUse" color-interpolation-filters="sRGB"><feFlood flood-color="#fff" result="bg"/><feBlend in="SourceGraphic" in2="bg"/></filter><mask id="mask-3" x="681.43" y="-8542.2" width="97.57" height="32766" maskUnits="userSpaceOnUse"><g class="cls-90"/></mask><linearGradient id="linear-gradient-3" x1="629.65" y1="690.05" x2="823.95" y2="740.36" xlink:href="#linear-gradient"/><filter id="luminosity-noclip-4" x="403.33" y="-8542.2" width="229.11" height="32766" filterUnits="userSpaceOnUse" color-interpolation-filters="sRGB"><feFlood flood-color="#fff" result="bg"/><feBlend in="SourceGraphic" in2="bg"/></filter><mask id="mask-4" x="403.33" y="-8542.2" width="229.11" height="32766" maskUnits="userSpaceOnUse"><g class="cls-89"/></mask><linearGradient id="linear-gradient-4" x1="281.84" y1="658.05" x2="737.9" y2="776.14" xlink:href="#linear-gradient"/><linearGradient id="linear-gradient-5" x1="754.47" y1="527.77" x2="754.47" y2="117.32" gradientUnits="userSpaceOnUse"><stop offset="0" stop-color="#eaebf2"/><stop offset="1" stop-color="#fff"/></linearGradient><linearGradient id="linear-gradient-6" x1="151.27" y1="595.1" x2="151.27" y2="604.89" gradientUnits="userSpaceOnUse"><stop offset="0" stop-color="#757db7"/><stop offset="1" stop-color="#a1acf8"/></linearGradient><linearGradient id="linear-gradient-7" x1="272.87" y1="312.61" x2="272.87" y2="358.31" xlink:href="#linear-gradient-5"/><linearGradient id="linear-gradient-8" x1="365.36" y1="269.39" x2="365.36" y2="295" xlink:href="#linear-gradient-5"/><linearGradient id="linear-gradient-9" x1="1082.3" y1="215.01" x2="1082.3" y2="247.27" xlink:href="#linear-gradient-5"/><linearGradient id="linear-gradient-10" x1="702.22" y1="437.19" x2="702.22" y2="270.8" gradientUnits="userSpaceOnUse"><stop offset="0.56" stop-color="#bbc0d9"/><stop offset="0.96" stop-color="#8991c0"/></linearGradient><linearGradient id="linear-gradient-11" x1="680.46" y1="260.64" x2="684.88" y2="280.01" gradientUnits="userSpaceOnUse"><stop offset="0" stop-color="#40c9a4"/><stop offset="1" stop-color="#35b997"/></linearGradient><linearGradient id="linear-gradient-12" x1="730.97" y1="232.01" x2="734.52" y2="283.48" gradientUnits="userSpaceOnUse"><stop offset="0" stop-color="#8bf3d6"/><stop offset="1" stop-color="#44c2a1"/></linearGradient><filter id="luminosity-noclip-5" x="801.61" y="677.86" width="141.61" height="22.07" filterUnits="userSpaceOnUse" color-interpolation-filters="sRGB"><feFlood flood-color="#fff" result="bg"/><feBlend in="SourceGraphic" in2="bg"/></filter><mask id="mask-5" x="779.38" y="667.02" width="141.61" height="22.07" maskUnits="userSpaceOnUse"><g class="cls-88"><g transform="translate(-22.23 -10.84)"><g class="cls-1"><ellipse class="cls-2" cx="872.41" cy="688.9" rx="70.8" ry="11.04"/></g></g></g></mask><linearGradient id="linear-gradient-13" x1="704.23" y1="640.27" x2="986.22" y2="713.28" gradientUnits="userSpaceOnUse"><stop offset="0" stop-color="#acb4d8"/><stop offset="1" stop-color="#8b90ae"/></linearGradient><linearGradient id="linear-gradient-14" x1="762.01" y1="624.78" x2="615.11" y2="624.78" xlink:href="#linear-gradient-5"/><linearGradient id="linear-gradient-15" x1="776.37" y1="537.04" x2="877.12" y2="601.31" gradientUnits="userSpaceOnUse"><stop offset="0" stop-color="#5e87f3"/><stop offset="1" stop-color="#4472e7"/></linearGradient><linearGradient id="linear-gradient-16" x1="928.91" y1="187.25" x2="928.91" y2="237.16" gradientUnits="userSpaceOnUse"><stop offset="0" stop-color="#abb0cb"/><stop offset="1" stop-color="#767ea0"/></linearGradient><linearGradient id="linear-gradient-17" x1="927.5" y1="186.03" x2="927.5" y2="215.69" xlink:href="#linear-gradient-16"/><linearGradient id="linear-gradient-18" x1="947.8" y1="567.32" x2="817.54" y2="118.68" gradientUnits="userSpaceOnUse"><stop offset="0" stop-color="#b0aeda"/><stop offset="1" stop-color="#fff"/></linearGradient><linearGradient id="linear-gradient-19" x1="872.42" y1="434.35" x2="1083.02" y2="644.95" gradientTransform="translate(616.64 -512.04) rotate(45)" xlink:href="#linear-gradient-18"/><linearGradient id="linear-gradient-20" x1="892.27" y1="618.71" x2="892.27" y2="556.01" gradientUnits="userSpaceOnUse"><stop offset="0" stop-color="#979ebe"/><stop offset="1" stop-color="#5d658c"/></linearGradient><linearGradient id="linear-gradient-21" x1="844.47" y1="624.19" x2="844.47" y2="552.22" xlink:href="#linear-gradient-20"/><linearGradient id="linear-gradient-22" x1="321.34" y1="526.57" x2="343.82" y2="549.05" gradientUnits="userSpaceOnUse"><stop offset="0" stop-color="#3661ea"/><stop offset="1" stop-color="#2c50c7"/></linearGradient><linearGradient id="linear-gradient-23" x1="305.62" y1="608.52" x2="320.99" y2="583.54" xlink:href="#linear-gradient-20"/><linearGradient id="linear-gradient-24" x1="252.4" y1="617.82" x2="252.4" y2="578.2" xlink:href="#linear-gradient-20"/><linearGradient id="linear-gradient-25" x1="260.5" y1="561.88" x2="275.75" y2="558.9" xlink:href="#linear-gradient-22"/><linearGradient id="linear-gradient-26" x1="1229.48" y1="574.24" x2="1229.48" y2="521.04" gradientUnits="userSpaceOnUse"><stop offset="0" stop-color="#9699e9"/><stop offset="1" stop-color="#8e8fdd"/></linearGradient><filter id="luminosity-noclip-6" x="982.03" y="653.23" width="141.61" height="22.07" filterUnits="userSpaceOnUse" color-interpolation-filters="sRGB"><feFlood flood-color="#fff" result="bg"/><feBlend in="SourceGraphic" in2="bg"/></filter><mask id="mask-6" x="959.8" y="642.39" width="141.61" height="22.07" maskUnits="userSpaceOnUse"><g class="cls-87"><g transform="translate(-22.23 -10.84)"><g class="cls-3"><ellipse class="cls-4" cx="1052.83" cy="664.26" rx="70.8" ry="11.04"/></g></g></g></mask><linearGradient id="linear-gradient-27" x1="884.66" y1="615.64" x2="1166.65" y2="688.65" xlink:href="#linear-gradient-13"/><linearGradient id="linear-gradient-28" x1="1115.97" y1="562.15" x2="1115.97" y2="620.39" gradientUnits="userSpaceOnUse"><stop offset="0" stop-color="#00ba78"/><stop offset="1" stop-color="#009c6b"/></linearGradient><filter id="luminosity-noclip-7" x="681.43" y="708.49" width="97.57" height="15.21" filterUnits="userSpaceOnUse" color-interpolation-filters="sRGB"><feFlood flood-color="#fff" result="bg"/><feBlend in="SourceGraphic" in2="bg"/></filter><mask id="mask-7" x="659.2" y="697.65" width="97.57" height="15.21" maskUnits="userSpaceOnUse"><g class="cls-86"><g transform="translate(-22.23 -10.84)"><g class="cls-5"><ellipse class="cls-6" cx="730.22" cy="716.09" rx="48.79" ry="7.6"/></g></g></g></mask><linearGradient id="linear-gradient-29" x1="607.42" y1="679.21" x2="801.73" y2="729.52" xlink:href="#linear-gradient-13"/><linearGradient id="linear-gradient-30" x1="736.31" y1="719.9" x2="689.52" y2="673.11" gradientUnits="userSpaceOnUse"><stop offset="0" stop-color="#b0aed9"/><stop offset="1" stop-color="#918eca"/></linearGradient><linearGradient id="linear-gradient-31" x1="436.75" y1="503.72" x2="469.62" y2="503.72" xlink:href="#linear-gradient-26"/><linearGradient id="linear-gradient-32" x1="391.7" y1="583.77" x2="514.67" y2="583.77" gradientTransform="translate(146.25 -88.5) rotate(13.28)" xlink:href="#linear-gradient-26"/><linearGradient id="linear-gradient-33" x1="397.17" y1="539.15" x2="459.92" y2="601.89" gradientUnits="userSpaceOnUse"><stop offset="0" stop-color="#b9c1fa"/><stop offset="1" stop-color="#a1acf8"/></linearGradient><linearGradient id="linear-gradient-34" x1="427.02" y1="506.3" x2="434.89" y2="506.3" xlink:href="#linear-gradient-26"/><linearGradient id="linear-gradient-35" x1="488.75" y1="534.01" x2="500.45" y2="534.01" gradientTransform="translate(588.66 -187.76) rotate(50.23)" xlink:href="#linear-gradient-26"/><linearGradient id="linear-gradient-36" x1="405.91" y1="534.01" x2="417.62" y2="534.01" gradientTransform="translate(436.87 -139.85) rotate(39.77)" xlink:href="#linear-gradient-26"/><linearGradient id="linear-gradient-37" x1="407.95" y1="583.77" x2="498.42" y2="583.77" xlink:href="#linear-gradient-26"/><filter id="luminosity-noclip-8" x="403.33" y="705.84" width="229.11" height="26.65" filterUnits="userSpaceOnUse" color-interpolation-filters="sRGB"><feFlood flood-color="#fff" result="bg"/><feBlend in="SourceGraphic" in2="bg"/></filter><mask id="mask-8" x="381.1" y="695" width="229.11" height="26.65" maskUnits="userSpaceOnUse"><g class="cls-85"><g transform="translate(-22.23 -10.84)"><g class="cls-7"><ellipse class="cls-8" cx="517.88" cy="719.17" rx="114.55" ry="13.32"/></g></g></g></mask><linearGradient id="linear-gradient-38" x1="259.61" y1="647.21" x2="715.67" y2="765.3" xlink:href="#linear-gradient-13"/><linearGradient id="linear-gradient-39" x1="517.16" y1="262.41" x2="540.49" y2="262.41" gradientUnits="userSpaceOnUse"><stop offset="0" stop-color="#979ebe"/><stop offset="0.99" stop-color="#6b72a3"/></linearGradient><linearGradient id="linear-gradient-40" x1="543.57" y1="381.48" x2="587.12" y2="406.73" xlink:href="#linear-gradient-20"/><linearGradient id="linear-gradient-41" x1="525.08" y1="334.52" x2="542.59" y2="344.25" gradientUnits="userSpaceOnUse"><stop offset="0" stop-color="#0aa67d"/><stop offset="1" stop-color="#07946e"/></linearGradient><linearGradient id="linear-gradient-42" x1="430.47" y1="308.23" x2="456.31" y2="308.23" xlink:href="#linear-gradient-41"/><linearGradient id="linear-gradient-43" x1="421.16" y1="290.99" x2="428.82" y2="290.99" xlink:href="#linear-gradient-41"/><linearGradient id="linear-gradient-44" x1="430.47" y1="340.37" x2="456.31" y2="340.37" gradientUnits="userSpaceOnUse"><stop offset="0" stop-color="#c9cedf"/><stop offset="0.43" stop-color="#e7e9f6"/><stop offset="1" stop-color="#c9cedf"/></linearGradient><linearGradient id="linear-gradient-45" x1="1128.89" y1="327.89" x2="1128.89" y2="251.14" gradientUnits="userSpaceOnUse"><stop offset="0" stop-color="#d5d2f7"/><stop offset="1" stop-color="#fff"/></linearGradient><linearGradient id="linear-gradient-46" x1="1103.67" y1="275.09" x2="1154.11" y2="275.09" xlink:href="#linear-gradient-15"/></defs><g id="bg"><path class="cls-9" d="M1294.44,500.49c-39.66-51.17-106.14-21.11-128.89-21.11-104.51,0-121.94-135.16-324.85-135.16-138.19,0-158.29,147.6-248.34,147.6-108.55,0-110.08-87.56-223.1-87.56-83.64,0-138.31,54.3-144.59,62.11C146.4,563.71,190.45,605,51.77,645.07h1405.4C1394.76,645.07,1295.26,501.55,1294.44,500.49Z" transform="translate(-22.23 -10.84)"/><circle class="cls-10" cx="1370.32" cy="512.45" r="34.07"/><circle class="cls-10" cx="105.1" cy="515.54" r="34.36"/><circle class="cls-10" cx="99.29" cy="588.65" r="13.81" transform="translate(-115.24 12.67) rotate(-9.22)"/><circle class="cls-10" cx="1327.48" cy="499.42" r="13.81" transform="translate(335.84 1523.9) rotate(-67.5)"/><circle class="cls-10" cx="552.97" cy="380.43" r="66.58" transform="translate(-129.27 491.6) rotate(-45)"/><polygon class="cls-11" points="151.27 588.27 148.06 587.51 145.64 634.23 156.91 634.23 154.48 587.51 151.27 588.27"/><polygon class="cls-12" points="195.91 595.42 151.27 408.98 106.64 595.42 195.91 595.42"/><path class="cls-13" d="M169,587.92H147.7a2.1,2.1,0,1,1,0-4.19H169a2.1,2.1,0,1,1,0,4.19Zm31.53-18.53a2.1,2.1,0,0,0-2.09-2.09H179.23a2.1,2.1,0,0,0,0,4.19H198.4A2.1,2.1,0,0,0,200.49,569.39Zm-30.23-17.58a2.1,2.1,0,0,0-2.1-2.1H154.24a2.1,2.1,0,1,0,0,4.2h13.92A2.1,2.1,0,0,0,170.26,551.81Zm20.27-30.42a2.08,2.08,0,0,0-2.09-2.09H176.62a2.1,2.1,0,1,0,0,4.19h11.82A2.09,2.09,0,0,0,190.53,521.39Zm-16.16-20.61a2.1,2.1,0,0,0-2.09-2.09h-9.73a2.1,2.1,0,0,0,0,4.19h9.73A2.1,2.1,0,0,0,174.37,500.78Zm4.12-28.13a2.1,2.1,0,0,0-2.1-2.09h-5.52a2.1,2.1,0,1,0,0,4.19h5.52A2.1,2.1,0,0,0,178.49,472.65Z" transform="translate(-22.23 -10.84)"/><path class="cls-14" d="M654.14,510.46a5,5,0,1,1-5-5A5,5,0,0,1,654.14,510.46Zm14.8-5a5,5,0,1,0,5,5A5,5,0,0,0,668.94,505.43Zm19.84,0a5,5,0,1,0,5,5A5,5,0,0,0,688.78,505.43Z" transform="translate(-22.23 -10.84)"/><path class="cls-14" d="M384.78,454.49a5,5,0,1,1-5-5A5,5,0,0,1,384.78,454.49Zm14.81-5a5,5,0,1,0,5,5A5,5,0,0,0,399.59,449.46Zm19.83,0a5,5,0,1,0,5,5A5,5,0,0,0,419.42,449.46Z" transform="translate(-22.23 -10.84)"/><path class="cls-15" d="M322.37,338.48A17.49,17.49,0,0,0,304.89,321l-.45,0a26.51,26.51,0,0,0,.32-4.11,26.1,26.1,0,0,0-52-2.71A21.59,21.59,0,1,0,245,356h61.57v-.09A17.47,17.47,0,0,0,322.37,338.48Z" transform="translate(-22.23 -10.84)"/><path class="cls-16" d="M390.58,283.05a8.91,8.91,0,0,0-8.91-8.91h-.23a13.1,13.1,0,0,0,.17-2.09,13.3,13.3,0,0,0-26.53-1.38A11,11,0,1,0,351.14,292h31.37v0A8.9,8.9,0,0,0,390.58,283.05Z" transform="translate(-22.23 -10.84)"/><path class="cls-17" d="M1114.07,232.22A11.22,11.22,0,0,0,1102.85,221h-.29a16.28,16.28,0,0,0,.21-2.63,16.75,16.75,0,0,0-33.41-1.74,13.86,13.86,0,1,0-5,26.8h39.52v-.06A11.21,11.21,0,0,0,1114.07,232.22Z" transform="translate(-22.23 -10.84)"/><path class="cls-18" d="M1112.39,378a5,5,0,1,1-5-4.95A4.95,4.95,0,0,1,1112.39,378Z" transform="translate(-22.23 -10.84)"/><path class="cls-18" d="M643.16,211.23a4.83,4.83,0,1,1-4.83-4.83A4.83,4.83,0,0,1,643.16,211.23Z" transform="translate(-22.23 -10.84)"/><path class="cls-18" d="M447.31,235a4.83,4.83,0,1,1-4.83-4.84A4.83,4.83,0,0,1,447.31,235Z" transform="translate(-22.23 -10.84)"/><path class="cls-18" d="M1421.63,432.69a4.83,4.83,0,1,1-4.83-4.83A4.83,4.83,0,0,1,1421.63,432.69Z" transform="translate(-22.23 -10.84)"/><path class="cls-19" d="M821.51,221.48a5.15,5.15,0,1,1-5.15-5.15A5.15,5.15,0,0,1,821.51,221.48Z" transform="translate(-22.23 -10.84)"/><path class="cls-19" d="M1401.54,587.29a5.15,5.15,0,1,1-5.15-5.15A5.16,5.16,0,0,1,1401.54,587.29Z" transform="translate(-22.23 -10.84)"/><path class="cls-19" d="M116.34,439.39a5.16,5.16,0,1,1-5.15-5.15A5.15,5.15,0,0,1,116.34,439.39Z" transform="translate(-22.23 -10.84)"/><polygon class="cls-19" points="1180.54 299.44 1189.89 284.7 1198.68 292.83 1180.54 299.44"/><polygon class="cls-18" points="207.95 387.19 187.99 379.45 195.68 366.93 207.95 387.19"/><path class="cls-19" d="M647,436.15l-7.65-7.65,7.65-7.65,7.65,7.65Zm-4.82-7.65,4.82,4.82,4.82-4.82L647,423.68Z" transform="translate(-22.23 -10.84)"/><path class="cls-19" d="M1339.42,422.19l-7.64-7.64,7.64-7.65,7.65,7.65Zm-4.82-7.64,4.82,4.82,4.82-4.82-4.82-4.82Z" transform="translate(-22.23 -10.84)"/><path class="cls-19" d="M337,374.08l-7.65-7.65,7.65-7.65,7.65,7.65Zm-4.82-7.65,4.82,4.82,4.82-4.82L337,361.61Z" transform="translate(-22.23 -10.84)"/><path class="cls-18" d="M1177.18,231.51l-7.65-7.65,7.65-7.64,7.65,7.64Zm-4.82-7.65,4.82,4.82,4.82-4.82-4.82-4.82Z" transform="translate(-22.23 -10.84)"/><path class="cls-18" d="M63.29,558l-7.64-7.65,7.64-7.65,7.65,7.65Zm-4.82-7.65,4.82,4.82,4.82-4.82-4.82-4.82Z" transform="translate(-22.23 -10.84)"/></g><g id="objects"><path class="cls-20" d="M702.22,644.67c12.95,0,19-9.24,18.83-15.64-.32-14.17-10.61-201.91-10-230,1.19-31.9,18.29-28.51,18.29-69.55,0-26.27-2.57-47.4-6.61-70.93a1.64,1.64,0,0,0-3.25.26l-.49,69a1.72,1.72,0,0,1-1.72,1.7h-.84a1.71,1.71,0,0,1-1.71-1.62L710.61,257a1.29,1.29,0,0,0-2.57,0L704,327.9a1.71,1.71,0,0,1-1.71,1.62h-.09a1.73,1.73,0,0,1-1.72-1.62L696.41,257a1.29,1.29,0,0,0-2.57,0l-4.06,70.91a1.71,1.71,0,0,1-1.71,1.62h-.84a1.72,1.72,0,0,1-1.72-1.7l-.49-69a1.64,1.64,0,0,0-3.26-.26c-4,23.53-6.6,44.66-6.6,70.93,0,41,17.1,37.65,18.29,69.55.55,28.05-9.73,215.79-10.05,230C683.25,635.43,689.28,644.67,702.22,644.67Z" transform="translate(-22.23 -10.84)"/><path class="cls-21" d="M689.47,277.11c15.22-7.58,23.5-7.84,34.76-5.78l.51-.84a10.54,10.54,0,0,0,.62-9.83,10.33,10.33,0,0,0-6.51-5.68c-3-.89-5.08-2.82-6.63-6.27-1.72-3.81-2.47-8.81-3-13.19a31.94,31.94,0,0,0-1.13-5.11c-6.48,11.61-14.19,16.27-28.3,22.62-19.83,8.92-25.42,10.52-41.07,14.61a1.74,1.74,0,0,0-1.12,2.48c4.42,8.57,12.46,16.73,23.88,22.64a4.08,4.08,0,0,0,4.49-.49A105.39,105.39,0,0,1,689.47,277.11Z" transform="translate(-22.23 -10.84)"/><path class="cls-22" d="M725.8,297.93a9.33,9.33,0,0,0-7.32-2.35,9.47,9.47,0,0,1-6.3-17.28,24.77,24.77,0,0,0,7.24-7.83l1.44-2.35a5.91,5.91,0,0,0-3.29-8.77c-9.58-2.8-11.59-13.12-12.89-23.25a27.27,27.27,0,0,0-6.78-14.6,8.34,8.34,0,0,1,12.19-11.39h0a44.06,44.06,0,0,1,29,1.7,19.71,19.71,0,0,0,9.39,1.17,10.25,10.25,0,0,1,10.94,9.94,22.31,22.31,0,0,0,2.25,9.88,44.24,44.24,0,0,1-6,48.68,23.93,23.93,0,0,0-5.19,9.27C747.63,301.35,733.82,305.29,725.8,297.93Z" transform="translate(-22.23 -10.84)"/><path class="cls-23" d="M746.77,246.05a15.74,15.74,0,1,0-22.87-1.12,10.14,10.14,0,0,1,2.32,8.83c-1.44,6.42,5,13.54,12.47,10.19a8.93,8.93,0,0,0,5.2-9.34A10,10,0,0,1,746.77,246.05Z" transform="translate(-22.23 -10.84)"/><g class="cls-24"><circle class="cls-25" cx="731.33" cy="244.81" r="3.59"/></g><g class="cls-26"><ellipse class="cls-27" cx="850.18" cy="678.06" rx="70.8" ry="11.04"/></g><path class="cls-28" d="M565.63,645.07H906.18a11.16,11.16,0,0,0,11.15-11.16V604.49H553.93v28.88A11.7,11.7,0,0,0,565.63,645.07Z" transform="translate(-22.23 -10.84)"/><path class="cls-29" d="M893.16,447.67a108.24,108.24,0,0,1-61.55,6.52A40.88,40.88,0,0,0,790,471.62c-36.17,54.28-115.52,83.66-168.17,90v42.88H917.33c0-52-24.19-81-18.39-152.7A4.14,4.14,0,0,0,893.16,447.67Z" transform="translate(-22.23 -10.84)"/><path class="cls-30" d="M601.74,562.92c-38.48,0-47.81,27.76-47.81,41.57h67.89V561.61A170.62,170.62,0,0,1,601.74,562.92Z" transform="translate(-22.23 -10.84)"/><circle class="cls-31" cx="630.85" cy="566.65" r="8.63"/><circle class="cls-31" cx="686.57" cy="568.54" r="8.63" transform="translate(-46.73 1095.29) rotate(-76.72)"/><circle class="cls-31" cx="698.91" cy="544.89" r="8.63"/><circle class="cls-31" cx="751.2" cy="536.25" r="8.63" transform="translate(-170.26 317.46) rotate(-22.5)"/><path class="cls-14" d="M653.07,581a3.49,3.49,0,0,1-3.37-2.64l-5.16-20.82a3.47,3.47,0,1,1,6.74-1.67l5.17,20.82a3.47,3.47,0,0,1-3.38,4.31Z" transform="translate(-22.23 -10.84)"/><path class="cls-14" d="M686.58,572a3.49,3.49,0,0,1-3.26-2.26l-7.94-21.29a3.47,3.47,0,1,1,6.51-2.43l7.94,21.29a3.48,3.48,0,0,1-2,4.47A3.44,3.44,0,0,1,686.58,572Z" transform="translate(-22.23 -10.84)"/><path class="cls-14" d="M721.14,559.2a3.48,3.48,0,0,1-3.11-1.9l-10.31-20.39a3.47,3.47,0,1,1,6.2-3.13l10.31,20.38a3.47,3.47,0,0,1-1.53,4.67A3.5,3.5,0,0,1,721.14,559.2Z" transform="translate(-22.23 -10.84)"/><path class="cls-14" d="M751.21,539.72a3.48,3.48,0,0,1-2.92-1.57l-11.12-17a3.48,3.48,0,0,1,5.82-3.8l11.12,17a3.47,3.47,0,0,1-2.9,5.37Z" transform="translate(-22.23 -10.84)"/><path class="cls-32" d="M965.62,199.54c-1.6-3.37-9.08-3.18-13-2.84a62.18,62.18,0,0,0-4.43-6.18c-5.89-7.29-6-6.1-20.51-6.05-10-.06-13.93-1-17.4,3.85l-.19.26a58.64,58.64,0,0,0-5.7,9.68l-1.38.08s-9.36-.65-10.81,4.08a68.78,68.78,0,0,1,4.32-11.78c5-10.51,10.39-17.56,21.24-17.93,12-.07,20.18,0,21.25,0a19.22,19.22,0,0,1,13.91,6.4A76.74,76.74,0,0,1,965.62,199.54Z" transform="translate(-22.23 -10.84)"/><path class="cls-33" d="M941.85,219.59h-28.7a259.4,259.4,0,0,1-3.36-44.73h35.43C945.23,192.33,944,203.86,941.85,219.59Z" transform="translate(-22.23 -10.84)"/><path class="cls-34" d="M928.43,169.6h0a8.27,8.27,0,0,1-8.27-8.27v-6.88a6.49,6.49,0,0,1,6.49-6.49h3.55a6.49,6.49,0,0,1,6.49,6.49v6.88A8.26,8.26,0,0,1,928.43,169.6Z" transform="translate(-22.23 -10.84)"/><path class="cls-35" d="M922.65,151.93a13.83,13.83,0,0,0,3.48.48c2.14,0,4.23-.87,6-.87a35.87,35.87,0,0,1,3.83.35,4,4,0,0,0,4-4c0-.93-1.25-4-3.44-4-1.59,0-2.13,2-4.91,2-2.33,0-3.25-1-5.62-1-5.55,0-7,5.49-7,7.34,0,.24.65,3.91,1.13,5.93C921.53,156.92,922.25,154.18,922.65,151.93Z" transform="translate(-22.23 -10.84)"/><polygon class="cls-34" points="909.21 163.12 905.93 166.37 902.64 163.12 903.18 153.63 908.67 153.63 909.21 163.12"/><path class="cls-34" d="M960.94,206.53c-7.77-.17-18.92-.38-30.93-5.18l.56-3.8c5.33-.48,11.91-.37,21.43-1.16,4.1-.34,12-.54,13.62,2.83A5.12,5.12,0,0,1,960.94,206.53Z" transform="translate(-22.23 -10.84)"/><path class="cls-34" d="M927.84,190.75v8a2.31,2.31,0,0,0,1.41,2.26l.75.32.56-3.8-1.19-6.86C929.29,189.83,927.88,190,927.84,190.75Z" transform="translate(-22.23 -10.84)"/><path class="cls-34" d="M925.86,201.61c-9.31,4.38-18.58,6.24-28.19,7.26a5.15,5.15,0,0,1-5.42-6.77c1.54-4.72,11.52-4.07,11.52-4.07l1.46-.09c8-.49,15.33,0,20.11-.07Z" transform="translate(-22.23 -10.84)"/><path class="cls-34" d="M927.92,190.76l.19,8.33c.1,1.89-1.38,2.21-2.25,2.52l-.52-3.74,1-7.18C926.45,189.82,927.87,190,927.92,190.76Z" transform="translate(-22.23 -10.84)"/><path class="cls-36" d="M925.85,215.93c-2-.15-31-6.21-40.19-6.87a7.5,7.5,0,0,0-7.63,4.12c-1.83,3.71-.14,7.9,3.4,10,18,10.84,32.62,12.65,45,12.47,12.36.18,26.94-1.63,45-12.47,3.54-2.13,5.23-6.32,3.4-10a7.5,7.5,0,0,0-7.64-4.12c-.31,0-8.82.94-22,3.47C927,216,927.39,216,925.85,215.93Z" transform="translate(-22.23 -10.84)"/><path class="cls-34" d="M926.4,229.88a12.76,12.76,0,0,0-10.1,5.41,131,131,0,0,0,20.2,0A12.73,12.73,0,0,0,926.4,229.88Z" transform="translate(-22.23 -10.84)"/><path class="cls-37" d="M1038.72,366.44V311.55A76.77,76.77,0,0,0,962,234.87H890.77a76.77,76.77,0,0,0-76.68,76.68v54.64a169.76,169.76,0,0,0-.33,254.34A93.51,93.51,0,0,0,875.85,644H977a93.62,93.62,0,0,0,62.3-23.63,169.48,169.48,0,0,0-.54-253.89Zm-111-42.71a169.17,169.17,0,0,0-73.33,16V311.55a36.44,36.44,0,0,1,36.4-36.4H962a36.44,36.44,0,0,1,36.4,36.4v28.3A168.08,168.08,0,0,0,927.7,323.73Z" transform="translate(-22.23 -10.84)"/><circle class="cls-38" cx="926.4" cy="488.34" r="89.79" transform="translate(-96.2 787.26) rotate(-45)"/><path class="cls-39" d="M887.76,533.58l-30.12,1.53a382,382,0,0,0,8.85,47.94l29.46.73C891.54,564,888.15,545.88,887.76,533.58Z" transform="translate(-22.23 -10.84)"/><path class="cls-40" d="M918.05,681.27c-3.4-22.59-14.34-62.64-22.1-97.49l-29.46-.73a288.63,288.63,0,0,0,45.38,98.19Z" transform="translate(-22.23 -10.84)"/><path class="cls-41" d="M918.05,681.27l7.31,3.67a2.42,2.42,0,0,1,1.32,2.16h0a2.43,2.43,0,0,1-2.43,2.43H913.47a2.93,2.93,0,0,1-2.82-3.7l1.26-4.63Z" transform="translate(-22.23 -10.84)"/><path class="cls-42" d="M929.05,486.35,943.51,483c0,1.22-1.6,5.08-1.22,6.29s3.09,3,3.8,4.06L933.77,498C932.59,495.21,931.14,491.43,929.05,486.35Z" transform="translate(-22.23 -10.84)"/><path class="cls-42" d="M956,500.75a3.57,3.57,0,0,1-4.33-1.93c-6,0-11.35-3.42-13.07-8.87a11.91,11.91,0,0,1-.25-6.26c.06-.29.14-.59.23-.89a10.08,10.08,0,0,1,7.87-6.92l7.44-1.41,1.13-.21a10.16,10.16,0,0,1,11.43,6.25c.07.2.14.39.2.59,2,6.33-1.6,13.21-8.14,16.22A3.57,3.57,0,0,1,956,500.75Z" transform="translate(-22.23 -10.84)"/><path class="cls-41" d="M970.89,484.68c-.41-1.36-1.14-2.62-1.53-3.94-1-3.2,1.22-4.46,0-8.37-.78-2.61-3.14-5.05-6-4.19-.91.28-1.82.75-2.74,1-1.77.53-2.52-.48-4.2,0-2.17.65-2.38,2.9-4,3.81a10.91,10.91,0,0,0-2.66,2.2l3-.57c1.33-.08,3.38-.41,5.24.75,2.14,1.35,4.37,3.75,5.83,8.38,1.29,4.09,1.41,7.95-6.88,10.23.76,1.24,2,2.91,1.08,5.12,1.63.56,7.25-1.26,9.26-3A11.56,11.56,0,0,0,970.89,484.68Z" transform="translate(-22.23 -10.84)"/><path class="cls-43" d="M840,682.43l4.56-.06c4.45-37,10.55-67.3,16-94.93l-31.58-4.94C827.44,611.59,829,645.25,840,682.43Z" transform="translate(-22.23 -10.84)"/><path class="cls-44" d="M833.59,534.72c-1.75,14.07-3.78,30.08-4.68,47.78l31.58,4.94c3.55-18.09,6.81-35,9.13-51.86C851.41,532.65,845.91,533.56,833.59,534.72Z" transform="translate(-22.23 -10.84)"/><path class="cls-41" d="M841.23,689.53a2.93,2.93,0,0,1-2.83-3.7l1.12-4.63h5.15l3.1,4.63c.85,1.37-.9,3.7-2.83,3.7Z" transform="translate(-22.23 -10.84)"/><path class="cls-42" d="M1001.06,433.06l.74,6.76,6.16,2a1.36,1.36,0,0,0,1.72-.94h0a1.67,1.67,0,0,1,1.06-1.16l5.61-2a2.28,2.28,0,0,0,1.18-3.32l-.2-.34a4.18,4.18,0,0,0-3.92-2Z" transform="translate(-22.23 -10.84)"/><path class="cls-42" d="M925.81,547.18a2.37,2.37,0,0,1-2.27,2.55c-10.71.35-22.51-2.13-32.83-2.74l-1.13,4.71c11.24,4.91,25.29,10.38,37.2,11.52a13,13,0,0,0,14.49-12.07c.1-2.1.23-4.43.34-7.2h-16C925.66,545,925.73,546.06,925.81,547.18Z" transform="translate(-22.23 -10.84)"/><path class="cls-42" d="M892.85,547.14l-3.49-3.87a4.37,4.37,0,0,0-3.39-1.6h-1.55a2.18,2.18,0,0,0-2.18,2l-.48,6.54a2.2,2.2,0,0,0,2.22,2.36l8,.13Z" transform="translate(-22.23 -10.84)"/><path class="cls-30" d="M918,458.09a78.65,78.65,0,0,1-27.63,16.31c-28,9.33-50.43,31.28-56.78,60.28l54.13,2.52c6.74-8.09,22.49-12.15,35.59-11.91a1.58,1.58,0,0,1,1.56,1.56c.06,3.88.21,9.24.72,17.1h16c.13-3,.23-6.63.28-11.07.3-23.18,1.85-18.77-15.87-54.29a4.59,4.59,0,0,1,1-5.42c5.36-4.95,9.62-8.86,13.23-12l-10.72-12.27A123.05,123.05,0,0,0,918,458.09Z" transform="translate(-22.23 -10.84)"/><path class="cls-42" d="M1001.8,439.82l-.74-6.76c-9.33-.27-21.58.07-30.94.39-15.28.62-29.49,7.67-40.6,15.46l10.72,12.27c15.88-13.79,19.27-12.54,49.5-18.66C993.77,441.67,997.79,440.82,1001.8,439.82Z" transform="translate(-22.23 -10.84)"/><path class="cls-42" d="M323,559.56c-.88,3.22-1.53,6.47-2.22,9.68-3,14.79-4.1,21.89-5.05,25.62l13.39,3.76a161.81,161.81,0,0,0,7.66-36.88Z" transform="translate(-22.23 -10.84)"/><polygon class="cls-42" points="300.96 482 298.23 495.38 305.74 495.38 307.33 482.87 300.96 482"/><path class="cls-42" d="M319,491.33c-1.81-5.91-1.2-10.6,5.08-12.53,1.19-.37,4.64-1.68,7,2,.94,1.43,1.13,2.18,3.86,9.55a5.65,5.65,0,0,1-3.44,7.34A9.61,9.61,0,0,1,319,491.33Z" transform="translate(-22.23 -10.84)"/><path class="cls-42" d="M321.86,555.19a129.93,129.93,0,0,1,18.56,19.3c7.37,9.46,9.71,13.88,11,20.09.56,2.57,4.65,35.15,5.49,46.19l-4.07.94c-3.05-7.17-5.69-14.46-8.1-21.84-6.34-19.72-5.22-20.72-8.18-25.81-3.31-5.61-22.37-26.4-24.49-28.9Z" transform="translate(-22.23 -10.84)"/><path class="cls-39" d="M337.33,566.88c.83,11.61-6.84,30.8-10.2,36.23-5.12,8.18-12,8.52-21.64,10.53-6.52,1.35-13.08,2.78-19.78,3.89l-1.38-3.94a215.73,215.73,0,0,1,28-13.63c3.9-2.28,2.79-2.37,8.5-30.72.69-3.21,1.34-6.46,2.22-9.68Z" transform="translate(-22.23 -10.84)"/><path class="cls-41" d="M331.56,471.86c-2.61,3.71-16.11.68-16.11,13.28,0,4.13,2,8.15,5.51,9.85a9.31,9.31,0,0,1,2-4.3,1.38,1.38,0,0,0-.12-1.9,1.94,1.94,0,0,1,1-3.27,4,4,0,0,1-.09-.71c0-6.15,8.72-2.37,8.72-7.47,0-.29,0-.6,0-.91A23.11,23.11,0,0,0,331.56,471.86Z" transform="translate(-22.23 -10.84)"/><path class="cls-41" d="M356.93,640.57c3.75,2,5.16,1.64,5.35,2.55h0a1.4,1.4,0,0,1-1.09,1.7l-6.1,1.38a1.85,1.85,0,0,1-2.09-2l-.2-2.68Z" transform="translate(-22.23 -10.84)"/><path class="cls-41" d="M285.7,617.52c-1.86,4.3-1.15,6.2-2.12,6.5h0a1.53,1.53,0,0,1-2-1l-2.12-6.52a2,2,0,0,1,2-2.48l3-.47Z" transform="translate(-22.23 -10.84)"/><path class="cls-30" d="M354.34,529.42c-2.5-6.72-4.91-12.18-7.87-19.26a9.19,9.19,0,0,0-7.88-5.64c-29.85-2.67-27.68-3.78-33.72,1.48-4,3.57-10.22,8.67-14.05,12.39a7.7,7.7,0,0,0-.16,10.83c3.48,3.5,7.58,7.57,11.7,11.47l5.56-4.85c-1.93-2.55-4.56-6-8.55-11.19,6.09-4.66,8.29-6.25,14-11.26,10.12.59,13.91.34,24.14,1,1.47,3.64,7.68,20,9.14,22.24a7.58,7.58,0,0,0,11.23,1.75c1.5-1.28,5.17-4.49,9-8l-4.61-6.19C359.55,525.88,356.84,527.7,354.34,529.42Zm-41.81-16.09h0Zm1.4-.41.06-.06Zm24,1.46Z" transform="translate(-22.23 -10.84)"/><path class="cls-42" d="M372.69,522.92l-2.52-3a33.79,33.79,0,0,0-7.89,4.15l4.61,6.19A35.32,35.32,0,0,0,372.69,522.92Z" transform="translate(-22.23 -10.84)"/><path class="cls-45" d="M335.65,553.47c2.54-16.64,3.68-26,5.27-42.61l-30.64-2.63c-.44,17.29.2,27,1.91,44.28a.83.83,0,0,1-.07.13c8.69.47,15.65.78,23.56,1Z" transform="translate(-22.23 -10.84)"/><path class="cls-46" d="M312.3,600a215.73,215.73,0,0,0-28,13.63l1.38,3.94c6.7-1.11,13.26-2.54,19.78-3.89,9.67-2,16.52-2.35,21.64-10.53a26.34,26.34,0,0,0,2-4.49l-13.39-3.76C314.88,598.28,314.16,598.87,312.3,600Z" transform="translate(-22.23 -10.84)"/><path class="cls-44" d="M340.42,574.49c-1.87-2.43-3.95-4.89-6.12-7.29l3-.32a127.63,127.63,0,0,0-1.65-13.22c-7.91-.24-14.87-.55-23.56-1-3,5.29-2.41,11.77,2,15.72a33.3,33.3,0,0,1,2.56,2.48c3.9,4.26,13.69,14.68,18.43,21.1L347.78,585A94.16,94.16,0,0,0,340.42,574.49Z" transform="translate(-22.23 -10.84)"/><path class="cls-42" d="M311.7,548.34l3-2.83a104.83,104.83,0,0,0-6.76-9.67l-5.56,4.85A88.16,88.16,0,0,0,311.7,548.34Z" transform="translate(-22.23 -10.84)"/><path class="cls-42" d="M369.37,522l.83-5.9a1.31,1.31,0,0,1,.54-.88l1.17-.85a1.31,1.31,0,0,1,1.78.24c.58.71,1.38,1.68,2.11,2.4a1.3,1.3,0,0,1,.18,1.63,29.2,29.2,0,0,1-4.21,5.26C370.6,524,369.37,522,369.37,522Z" transform="translate(-22.23 -10.84)"/><path class="cls-42" d="M313.27,545.17l3.61.3a2.76,2.76,0,0,1,2.05,1.2l.56.82a1.4,1.4,0,0,1-.29,1.88l-3.26,2.6a1.39,1.39,0,0,1-2-.32l-3.16-4.76Z" transform="translate(-22.23 -10.84)"/><path class="cls-42" d="M273.73,503.14l-.07,0a6.47,6.47,0,0,1-3.31.65c-4.14-.31-7.2-4.62-6.83-9.63s4-8.82,8.19-8.51h.05a5.34,5.34,0,0,1,4.78,4.5l.33,2.06.56,3.45A7.05,7.05,0,0,1,273.73,503.14Z" transform="translate(-22.23 -10.84)"/><polygon class="cls-42" points="244.88 487.53 240.2 497.33 246.9 498.61 249.18 488.98 244.88 487.53"/><path class="cls-47" d="M271.38,548.59c3.45-10.54,5.45-21.05,7.55-31.72-12.39-3.37-25-5.61-25-5.61-3.46,11.58-3.46,23-2.07,33.87l0,0,19.52,3.59A.83.83,0,0,1,271.38,548.59Z" transform="translate(-22.23 -10.84)"/><path class="cls-48" d="M270.25,562.77c-3.49,28.14-18.2,60.32-33.71,80.05l-2-.89c4.26-16.64,8.77-30.56,20.47-71.68.34-1.26,2.14-7.51,3-10.15Z" transform="translate(-22.23 -10.84)"/><path class="cls-49" d="M270.25,562.77,258,560.1c-.89,2.64-2.69,8.89-3,10.15-1.13,4-2.21,7.69-3.23,11.2l13.48,4.38A141.49,141.49,0,0,0,270.25,562.77Z" transform="translate(-22.23 -10.84)"/><path class="cls-42" d="M283.18,587.78c-1-2.42-10.62-20.09-25.34-32.3l-9.43,9.07c5.77,7.64,6.7,7.49,21.35,27.32-5.92,3.21-16.73,9.13-23.08,13.8l.76,2.16c13.32-.6,29-5.47,30.57-6.24A10.77,10.77,0,0,0,283.18,587.78Z" transform="translate(-22.23 -10.84)"/><path class="cls-50" d="M273.88,572.83c-1.23-1.68-2.58-3.41-4-5.16.59-6.17.75-13.14,1.49-18.93l-19.52-3.59c-.56.53-12.88,12.37.19,24,2.28,2.77,4.47,5.28,9,11.09Z" transform="translate(-22.23 -10.84)"/><path class="cls-47" d="M283.09,516.06a10.43,10.43,0,0,0-7.18-7c-22.09-6.05-20.58-8-34.82,7.33l6,6.55c2.57-2.74,5.11-5.37,9-9.07a1.83,1.83,0,0,1,1.54-.51l15.8,3.85c1.67.42,1.44.72,3.21,7.2.55,2,1.12,4,1.69,6l7.94-2.26C284.45,521.41,283.09,516.06,283.09,516.06Z" transform="translate(-22.23 -10.84)"/><path class="cls-42" d="M231.54,526.52a4.15,4.15,0,0,0,.21,5.92c.91.82-.32-.27,18.48,16.48l3.91-3.84L240.8,529.54c2.47-2.58,4.37-4.65,6.25-6.65l-6-6.55C238.51,519.14,235.4,522.5,231.54,526.52Z" transform="translate(-22.23 -10.84)"/><path class="cls-42" d="M296.85,523.43c-3.17,3.82-4.66,5.6-8.86,10.78-.6-2.1-1.18-4.18-1.72-6.14l-7.94,2.26c2.06,7.13,4.05,13.52,4.13,13.74a4,4,0,0,0,6.93,1.42c1.47-1.78,7.18-12.58,11-19.7Z" transform="translate(-22.23 -10.84)"/><path class="cls-41" d="M269,494c1.51-1.84,2.35-3,3.86-3.44s4.94.49,4.94-2.62c0-2.1-1.83-3.77-3.36-5-2.61-2.11-6.82-1.67-8.63-3a3.81,3.81,0,0,0-2.32-.69c-4.93,0-5.55,3.27-8.46,3.27-3.59,0-1.64-3-6.22-3-5.11,0-3.82,3.78-8,3.78-1.19,0-2.36-.18-3.51-.18-6.56,0-4.49,6.31-7.09,7.68-1.89,1-4.87,1.16-4.87,4.23a3,3,0,0,0,2.38,2.9c3.25.65,4.08-1,5.82-1,3.46,0,3.72,4.62,7.72,4.62,2.84,0,2.17-2.22,4.73-2.22,2,0,3.78,1.8,6.3,1.8,1.84,0,3.86-1.72,6-2.6a6.14,6.14,0,0,1,2.29-.51c1.22,0,2.28.4,3.09.4a4.15,4.15,0,0,0,3.44-1.92.18.18,0,0,0-.15-.29,1.66,1.66,0,0,1-.6-.11,1.78,1.78,0,0,1-1.18-1.68,1.76,1.76,0,0,1,3.43-.51A.17.17,0,0,0,269,494Z" transform="translate(-22.23 -10.84)"/><path class="cls-41" d="M237.9,641c2,3.1,3.58,3.55,3.34,4.31h0a1.19,1.19,0,0,1-1.52.83l-5.16-1.47a1.59,1.59,0,0,1-.75-2.37l1.05-2.13Z" transform="translate(-22.23 -10.84)"/><path class="cls-41" d="M248.55,607.78c-1.47,3.37-.88,5.16-1.64,5.39h0a1.19,1.19,0,0,1-1.54-.8l-1.66-5.1a1.59,1.59,0,0,1,1.54-1.95l2.35-.31Z" transform="translate(-22.23 -10.84)"/><path class="cls-42" d="M248,546.82l3.31,4a2.72,2.72,0,0,0,3.44.64,15.69,15.69,0,0,0,2.68-1.93,2,2,0,0,0,.06-2.9l-1-.91a4.13,4.13,0,0,0-4.07-.93A22.93,22.93,0,0,0,248,546.82Z" transform="translate(-22.23 -10.84)"/><path class="cls-42" d="M299.08,527.84l2.83-4.39a2.7,2.7,0,0,0-.44-3.46,14.78,14.78,0,0,0-2.66-2,2,2,0,0,0-2.78.83l-.57,1.19a4.14,4.14,0,0,0,.36,4.16A22.58,22.58,0,0,0,299.08,527.84Z" transform="translate(-22.23 -10.84)"/><polygon class="cls-51" points="1247.32 354.01 1247.48 368.56 1239.62 367.05 1240.48 353.63 1247.32 354.01"/><path class="cls-39" d="M1272.15,440c1.38-2,2.95-5.32,2.95-12.17v-1.25c0-.41,0-.82,0-1.23,0-1.11.09-2.23.14-3.33a92.32,92.32,0,0,1-9.5-.48,404.88,404.88,0,0,0-44.86-27.1c-5-2.66-9.59-1.89-12.88.92s-3,4.88-6.51,16q-2.28,7.17-5,14.21c-1.82,4.71-5.1,12.34-7.15,17l5.54,1.65c4.79-6.74,16-19.45,22-31.75a386.3,386.3,0,0,1,37.79,29.8,11.7,11.7,0,0,0,16.49-1A12.14,12.14,0,0,0,1272.15,440Z" transform="translate(-22.23 -10.84)"/><path class="cls-52" d="M1254.3,384.17c-3.43,5.86-5.23,12.54-5.89,20.3-.17,2-.32,4.11-.49,6.21a12,12,0,0,0,3.89,10.11c4.71,3.95,12.76,5.82,23.33,5.82.35-9.11.92-17.86.92-22.28C1276.06,372.89,1260.64,373.34,1254.3,384.17Z" transform="translate(-22.23 -10.84)"/><path class="cls-53" d="M1147.37,440.79l-2.46-4.74a1.65,1.65,0,0,0-1.47-.9h0a1.64,1.64,0,0,0-1.64,1.65v7.31a2,2,0,0,0,2.51,1.91l3.14-.85Z" transform="translate(-22.23 -10.84)"/><path class="cls-44" d="M1275.31,422c-49.89,6.26-80.1,10.46-127.94,18.77v4.38l117.25.05a11.86,11.86,0,0,0,11.8-13.16Z" transform="translate(-22.23 -10.84)"/><path class="cls-51" d="M1190.88,388.12c-2.94.56-3.74,6.86-3.61,10.41a.27.27,0,0,0,.5.13l2.42-4.1a1,1,0,0,1,.83-.51l1-.07a.48.48,0,0,0,.39-.67l-.41-.88a.36.36,0,0,1,.36-.51l2,.17-.31-4.56Z" transform="translate(-22.23 -10.84)"/><path class="cls-51" d="M1295.61,442.31l.62,2a1.48,1.48,0,0,0,1.42,1.05h6.42a.58.58,0,0,0,.3-1.08l-5.27-3.22Z" transform="translate(-22.23 -10.84)"/><path class="cls-51" d="M1294,440.45c.57.71,1.14,1.41,1.7,2.08l3.4-1.44c-.26-.85-.51-1.66-.76-2.45Z" transform="translate(-22.23 -10.84)"/><path class="cls-52" d="M1286.27,400c-2.32-11.72-2.42-12.25-2.79-13.73a14,14,0,0,0-12.83-10.22c-19.1-1.29-12-2.44-47.26,6.35a23.65,23.65,0,0,1-2.64.51c-5.54.74-16.13,2.63-26.7,4.61l.31,4.56c13,1,27.73,1,29.63.77,13.76-1.68,31.23-4.81,31.23-4.81s8.28.87,14.81,1.34c0,0,.07,0,.07,0,.25,0,.33.15.51.32,0,0,0,0,0,0a0,0,0,0,1,0,0s0,0,0,0,0,0,0,.05c3.84,15.73,6,22.85,6.4,24.12,1.49,4.9,9.36,17.07,16.9,26.46l4.34-1.81C1293.52,423.29,1289.91,418.76,1286.27,400Z" transform="translate(-22.23 -10.84)"/><path class="cls-51" d="M1267.32,349.39c-1.27-.4-4.94-1.79-7.49,2.1a17.67,17.67,0,0,0-1.85,4,5.1,5.1,0,0,1-2.17,2.61h0a.56.56,0,0,0,0,1h0a.9.9,0,0,1,.42,1.11l-.54,1.46a6,6,0,0,0,3.67,7.82,10.23,10.23,0,0,0,13.35-6.75C1274.66,356.45,1274,351.44,1267.32,349.39Z" transform="translate(-22.23 -10.84)"/><path class="cls-53" d="M1265.4,352.06c-3.21-1.4-8,.84-8-5.37,0-2.7,1.45-3.94,2.79-3.94,1,0,1.94,2.26,4.1,2.26,1.1,0,2.32-.37,3.18-.37,2.5,0,2.91,1,5.27,2.78,2.21,1.66,3.79,4.28,3.79,8.73s-2.16,8.69-5.87,10.5a10,10,0,0,0-2.09-4.59,1.46,1.46,0,0,1,.13-2,2.08,2.08,0,0,0,.61-1.47,2.05,2.05,0,0,0-1.64-2,4.44,4.44,0,0,0,.09-.76A3.63,3.63,0,0,0,1265.4,352.06Z" transform="translate(-22.23 -10.84)"/><polygon class="cls-54" points="1167.25 634.23 1326.95 634.23 1291.71 434.44 1132.01 434.44 1167.25 634.23"/><polygon class="cls-12" points="1256.45 634.23 1096.75 634.23 1131.99 434.44 1291.69 434.44 1256.45 634.23"/><path class="cls-55" d="M1274,491.17H1221.7a2.14,2.14,0,0,1-2.16-2.62,3.27,3.27,0,0,1,3.08-2.62h52.32a2.13,2.13,0,0,1,2.15,2.62A3.25,3.25,0,0,1,1274,491.17Z" transform="translate(-22.23 -10.84)"/><path class="cls-55" d="M1185.71,508.34c-10.39,0-17.35-8.45-15.52-18.84s11.78-18.84,22.16-18.84a16.76,16.76,0,0,1,7.51,1.69,2.35,2.35,0,0,1,.69,3.47,3,3,0,0,1-3.7,1.3,12.05,12.05,0,0,0-5.42-1.22c-7.5,0-14.68,6.1-16,13.6s3.7,13.6,11.2,13.6c6.11,0,12.23-4.11,14.88-10a3.16,3.16,0,0,1,3.55-1.84,2.23,2.23,0,0,1,1.26,3.22C1202.65,502.65,1194.17,508.34,1185.71,508.34Z" transform="translate(-22.23 -10.84)"/><path class="cls-14" d="M1188.73,496.84a2.2,2.2,0,0,1-1.72-.76l-7-8.54a2.71,2.71,0,0,1,.66-3.71,2.61,2.61,0,0,1,3.7,0l5.51,6.69,14.89-12.67a2.62,2.62,0,0,1,3.71,0,2.72,2.72,0,0,1-.65,3.71l-17.08,14.52A3.11,3.11,0,0,1,1188.73,496.84Z" transform="translate(-22.23 -10.84)"/><path class="cls-55" d="M1264.4,545.66h-52.31a2.13,2.13,0,0,1-2.16-2.62,3.27,3.27,0,0,1,3.08-2.62h52.31a2.14,2.14,0,0,1,2.16,2.62A3.25,3.25,0,0,1,1264.4,545.66Z" transform="translate(-22.23 -10.84)"/><path class="cls-55" d="M1176.1,562.84c-10.39,0-17.35-8.45-15.52-18.84s11.77-18.84,22.16-18.84a16.76,16.76,0,0,1,7.51,1.69,2.34,2.34,0,0,1,.68,3.47,3,3,0,0,1-3.69,1.29,12.21,12.21,0,0,0-5.42-1.21c-7.5,0-14.68,6.1-16,13.6s3.7,13.6,11.2,13.6c6.11,0,12.23-4.11,14.88-10a3.15,3.15,0,0,1,3.54-1.83,2.22,2.22,0,0,1,1.27,3.21C1193,557.14,1184.56,562.84,1176.1,562.84Z" transform="translate(-22.23 -10.84)"/><path class="cls-14" d="M1179.12,551.34a2.21,2.21,0,0,1-1.72-.77l-7-8.54a2.71,2.71,0,0,1,.65-3.7,2.6,2.6,0,0,1,3.71,0l5.51,6.68,14.89-12.66a2.61,2.61,0,0,1,3.71,0,2.7,2.7,0,0,1-.66,3.7l-17.07,14.52A3.13,3.13,0,0,1,1179.12,551.34Z" transform="translate(-22.23 -10.84)"/><path class="cls-55" d="M1254.79,600.16h-52.31a2.13,2.13,0,0,1-2.16-2.62,3.25,3.25,0,0,1,3.08-2.62h52.31a2.13,2.13,0,0,1,2.16,2.62A3.26,3.26,0,0,1,1254.79,600.16Z" transform="translate(-22.23 -10.84)"/><path class="cls-55" d="M1166.48,617.33c-10.38,0-17.35-8.45-15.51-18.84s11.77-18.84,22.16-18.84a16.76,16.76,0,0,1,7.51,1.69,2.34,2.34,0,0,1,.68,3.47,3,3,0,0,1-3.7,1.3,12,12,0,0,0-5.41-1.22c-7.5,0-14.68,6.1-16,13.6s3.7,13.6,11.2,13.6c6.11,0,12.23-4.11,14.88-10a3.15,3.15,0,0,1,3.54-1.84,2.23,2.23,0,0,1,1.27,3.22C1183.43,611.64,1175,617.33,1166.48,617.33Z" transform="translate(-22.23 -10.84)"/><path class="cls-14" d="M1169.51,605.83a2.17,2.17,0,0,1-1.72-.77l-7-8.54a2.71,2.71,0,0,1,.65-3.7,2.62,2.62,0,0,1,3.71,0l5.5,6.69,14.9-12.67a2.62,2.62,0,0,1,3.71,0,2.72,2.72,0,0,1-.66,3.71l-17.07,14.51A3.09,3.09,0,0,1,1169.51,605.83Z" transform="translate(-22.23 -10.84)"/><g class="cls-56"><ellipse class="cls-57" cx="1030.61" cy="653.43" rx="70.8" ry="11.04"/></g><path class="cls-58" d="M1015.17,527a39.63,39.63,0,0,1,5.9,1.41,40.05,40.05,0,0,1,19.55,13.81,38.79,38.79,0,0,1,2.4,3.51,3.08,3.08,0,0,0,5.26,0,39.91,39.91,0,0,1,28.46-18.8,70.2,70.2,0,0,0-8.7,1.49,49,49,0,0,1-23.8-.17,69.12,69.12,0,0,0-28.5-1.32Z" transform="translate(-22.23 -10.84)"/><path class="cls-59" d="M1074.47,665.65c120.07-11.16,97.72-148.66,10-139.18-.39,0-.79,0-1.18,0,59.84,1.24,52,131.64-8,139.09Z" transform="translate(-22.23 -10.84)"/><path class="cls-60" d="M1055,504.52a1.94,1.94,0,0,1,3.3,2c-6.37,11.55-9.86,29.54-8.76,41.24a3.9,3.9,0,1,1-7.79.36C1041.79,533.7,1047.81,515.1,1055,504.52Z" transform="translate(-22.23 -10.84)"/><path class="cls-61" d="M1026.12,664a128.83,128.83,0,0,0,13.73-.38,62.41,62.41,0,0,1,17.63.91,60.88,60.88,0,0,0,12.46,1.22c.82,0,1.63,0,2.44,0a18.8,18.8,0,0,1-12.43-5.35l-.21-.2-8.92-8.92a7.31,7.31,0,0,0-10.33,0l-8.92,8.93A19.08,19.08,0,0,1,1026.12,664Z" transform="translate(-22.23 -10.84)"/><path class="cls-14" d="M1008.83,526.47A40,40,0,0,1,1043,545.68a3.09,3.09,0,0,0,5.27,0,40,40,0,0,1,34.19-19.21c60.78,0,53.16,131.61-7.16,139.1a18.81,18.81,0,0,1-15.57-5.43l-8.91-8.91a7.3,7.3,0,0,0-10.34,0l-8.92,8.92a18.77,18.77,0,0,1-15.54,5.42C955.45,658.13,948.27,526.47,1008.83,526.47Z" transform="translate(-22.23 -10.84)"/><circle class="cls-62" cx="1023.14" cy="581.6" r="24.57"/><path class="cls-60" d="M1052.55,586a7.7,7.7,0,0,1,9,1.39l.2.2c4.63,5-2.63,12.24-7.62,7.61l-.2-.2A7.7,7.7,0,0,1,1052.55,586Z" transform="translate(-22.23 -10.84)"/><path class="cls-60" d="M1038.2,586a7.7,7.7,0,0,0-9,1.39,1.89,1.89,0,0,0-.2.2c-4.63,5,2.63,12.24,7.61,7.61l.21-.2A7.71,7.71,0,0,0,1038.2,586Z" transform="translate(-22.23 -10.84)"/><g class="cls-63"><ellipse class="cls-64" cx="707.99" cy="705.25" rx="48.79" ry="7.6"/></g><rect class="cls-65" x="675.28" y="684.48" width="61.22" height="9.98"/><path class="cls-66" d="M766.66,716.8h-9.37a2.41,2.41,0,0,1-2.38-2.11,104.08,104.08,0,0,1,0-28.75,2.41,2.41,0,0,1,2.38-2.12h9.37a2.39,2.39,0,0,1,2.39,2.39v28.2A2.39,2.39,0,0,1,766.66,716.8Z" transform="translate(-22.23 -10.84)"/><path class="cls-66" d="M693.77,716.8h9.37a2.41,2.41,0,0,0,2.38-2.11,104.08,104.08,0,0,0,0-28.75,2.41,2.41,0,0,0-2.38-2.12h-9.37a2.39,2.39,0,0,0-2.39,2.39v28.2A2.39,2.39,0,0,0,693.77,716.8Z" transform="translate(-22.23 -10.84)"/><path class="cls-67" d="M453.18,520.15a16.44,16.44,0,1,1,16.44-16.43A16.45,16.45,0,0,1,453.18,520.15Zm0-29.4a13,13,0,1,0,13,13A13,13,0,0,0,453.18,490.75Z" transform="translate(-22.23 -10.84)"/><circle class="cls-68" cx="453.18" cy="583.77" r="61.48" transform="translate(-144.23 108.9) rotate(-13.28)"/><circle class="cls-69" cx="430.96" cy="572.93" r="52.6"/><rect class="cls-70" x="427.02" y="500.83" width="7.87" height="10.94"/><rect class="cls-12" x="422.93" y="492.55" width="16.05" height="9.3" rx="1.89"/><rect class="cls-12" x="496.28" y="523.87" width="3.81" height="11.67" rx="0.69" transform="translate(-249.87 562.93) rotate(-50.23)"/><rect class="cls-71" x="490.9" y="529.47" width="7.39" height="9.08" transform="translate(-254.47 561.73) rotate(-50.23)"/><rect class="cls-12" x="402.35" y="527.79" width="11.67" height="3.81" rx="0.69" transform="translate(-266.63 372.83) rotate(-39.77)"/><rect class="cls-72" x="407.23" y="530.31" width="9.08" height="7.39" transform="translate(-268.56 376.12) rotate(-39.77)"/><path class="cls-73" d="M453.18,544.23a2.85,2.85,0,1,1,2.85-2.85A2.85,2.85,0,0,1,453.18,544.23Zm0,79.08a2.85,2.85,0,1,0,2.85,2.85A2.85,2.85,0,0,0,453.18,623.31ZM410.8,580.93a2.84,2.84,0,1,0,2.84,2.84A2.84,2.84,0,0,0,410.8,580.93Zm81.93,2.84a2.85,2.85,0,1,0,2.84-2.84A2.84,2.84,0,0,0,492.73,583.77Zm-67.51-32a2.84,2.84,0,1,0,0,4A2.84,2.84,0,0,0,425.22,551.79Zm55.92,59.94a2.85,2.85,0,1,0,4,0A2.84,2.84,0,0,0,481.14,611.73Zm-59.94,0a2.84,2.84,0,1,0,4,0A2.84,2.84,0,0,0,421.2,611.73Zm59.94-55.92a2.85,2.85,0,1,0,0-4A2.85,2.85,0,0,0,481.14,555.81Z" transform="translate(-22.23 -10.84)"/><path class="cls-31" d="M491.62,566.69a.44.44,0,0,0-.59-.25L456.6,580.58a4.67,4.67,0,0,0-8.09,3.19v.13l-5.88,2.42-.13.06a2.14,2.14,0,1,0,1.88,3.85l5.83-2.85a4.67,4.67,0,0,0,7.65-3.61v-.12l33.54-16.38A.46.46,0,0,0,491.62,566.69Z" transform="translate(-22.23 -10.84)"/><g class="cls-74"><ellipse class="cls-75" cx="495.65" cy="708.33" rx="114.55" ry="13.32"/></g><polygon class="cls-42" points="506.94 263.24 503.58 287.17 521.65 287.63 518.59 263.22 506.94 263.24"/><path class="cls-42" d="M558.75,255.34a6.89,6.89,0,0,1-3.41,5.51c-2,12.21-11.4,21.17-22,20.48a17.36,17.36,0,0,1-5.23-1.16,19.26,19.26,0,0,1-6.77-4.5,16.63,16.63,0,0,1-4.5-14.28l2.31-15.25a12.68,12.68,0,0,1,.3-1.49,16.67,16.67,0,0,1,16.08-12.94c.35,0,.7,0,1,0,8.76.57,15.82,7.54,18.26,16.91A6.9,6.9,0,0,1,558.75,255.34Z" transform="translate(-22.23 -10.84)"/><path class="cls-76" d="M529.44,272.34c-.09.83,2.23,2.52,2.06,4.11-.09.9-1.5,2.37-3.41,3.72a19.26,19.26,0,0,1-6.77-4.5,16.63,16.63,0,0,1-4.5-14.28l2.31-15.25a12.68,12.68,0,0,1,.3-1.49c7.91.77,13.57,3,13,8.5-.37,3.29-1.21,6.82-4.38,9a1.22,1.22,0,0,0-.26,2,8.69,8.69,0,0,0,3.28,1.94c1.63.56,2.13,1.91,1.15,2.86C530.8,270.28,529.55,271.43,529.44,272.34Z" transform="translate(-22.23 -10.84)"/><path class="cls-42" d="M630.53,375.44l-46.22,48.05a3.75,3.75,0,0,1-5.06.32L576,421.15,610.33,370,569.6,322.57l-1.2,0-56.93-1.33-13.85,48.46-8.15,28.47-.46,1.64A10.3,10.3,0,0,1,469.65,401l-24.71-57.27,7.81-4.64L473.65,369l14.21-65.16a13.22,13.22,0,0,1,13.21-10.4h.44l5.56.13,10,.23,44.74,1.05,8.19.2,6.37.14.66,0a12.54,12.54,0,0,1,9.88,5.29l43.77,62.55.76,1.09A8.9,8.9,0,0,1,630.53,375.44Z" transform="translate(-22.23 -10.84)"/><path class="cls-77" d="M578.71,310.49c-24.68,40-15.14,75.62-4.07,103.9A35.76,35.76,0,0,1,545.1,463l-2.91.31c-26,2.74-47.53-20.48-42.38-46.15a123.39,123.39,0,0,0,2-14.55c3.58-45-22.26-28.8,4.33-98.44Z" transform="translate(-22.23 -10.84)"/><path class="cls-78" d="M568.9,330.56c-7.23,19.88-7.18,39.56-2.14,59.82-16.14-2.67-32.38-5.67-48.57-5.67a109.89,109.89,0,0,0-16.48,1.19c-.79-6.88-3.2-11.49-4.09-16.23-5.83-30.84,3.6-47.66,9.45-76.06l8.16.19c-.23,1.4-1.17,12.72-1.35,14a7.62,7.62,0,0,0,7.31,8.76l25.76.76a10.52,10.52,0,0,0,10.17-6.89c.62-1.68,3.85-13.51,4.65-15.51l8.19.2C568.26,306.16,560.32,323.85,568.9,330.56Z" transform="translate(-22.23 -10.84)"/><path class="cls-44" d="M577.73,586.36a89.72,89.72,0,0,1-1.27-18.66c1.3-33.05,8.61-62.75,11.89-98a72.8,72.8,0,0,0-4.72-33.27c-2.76-7.07-6.2-14.86-9.46-23.29a126.94,126.94,0,0,1-16.89,2.63l-57.83,3.12c-3.81,17.71-10.62,30.87-14.82,50.48h.14c-12.52,55.74-21,129.41-27.87,211.52l17.65.58c15.19-40.81,18.72-67.93,26.7-105.59,8.29-39.16,22.19-54.61,34.52-97.4,1.16,76.34,22.05,130.2,34.09,203.19h16.31C587.84,644,584.65,626.78,577.73,586.36Z" transform="translate(-22.23 -10.84)"/><path class="cls-42" d="M454.23,713.93l6.88-1c5.34-11,9.73-21.44,13.44-31.41l-17.65-.58C456,691.89,455.09,702.92,454.23,713.93Z" transform="translate(-22.23 -10.84)"/><path class="cls-42" d="M569.86,681.69c1.41,8.5,2.7,17.16,3.81,26,8.17,0,4.63.73,10.73.73.83-9.8,1.41-18.62,1.77-26.78Z" transform="translate(-22.23 -10.84)"/><path class="cls-41" d="M454.83,706.37c-8.12,7.2-13.11,7.29-13.06,9.64h0a3.53,3.53,0,0,0,3.66,3.59H461.3c2.84-.06,4.85-3.09,4-6.12l-1.26-6.9Z" transform="translate(-22.23 -10.84)"/><path class="cls-41" d="M584.5,706.37c9.17,8.13,7,13.31,2.75,13.23H576.59c-2.85-.06-4.85-3.09-4.05-6.12l1-6.9Z" transform="translate(-22.23 -10.84)"/><path class="cls-42" d="M579.7,425.05l-8.15-3.38L566.64,423a3.6,3.6,0,0,1-4.26-2.1l-.62-1.5a4.53,4.53,0,0,1,3.15-6.13l7.59-1.79a4.7,4.7,0,0,1,4.67,1.56l8,9.56-1.58,1.64A3.54,3.54,0,0,1,579.7,425.05Z" transform="translate(-22.23 -10.84)"/><path class="cls-41" d="M559.23,246.93a31.71,31.71,0,0,1-1.18,4.89,6.94,6.94,0,0,0-3.23-3.17s-14.6,3.39-27.26-11.13c-3,4.66-5.13,7.48-8.69,10.33l-1.12,7.35a25.27,25.27,0,0,1-2.65-4.66c-4.84-11.16.46-22.42,7.1-23.71,2.89-5,8.85-7.54,18.12-6.77a24,24,0,0,1,11.09,3.37,16.84,16.84,0,0,1,6.31,7.31C560.12,236,560,242.22,559.23,246.93Z" transform="translate(-22.23 -10.84)"/><path class="cls-41" d="M600.33,275.2c-3,3.13-6.59,5.28-11.37,5.28-29,0-2.77-49.68-31.24-49.74a16.84,16.84,0,0,0-6.31-7.31c6.89-8.47,15.07-11.36,24.63-11.36,14.63,0,18.37,13.67,18.37,28.65,0,6.09-.66,12.13-.66,18.27S594.94,271.58,600.33,275.2Z" transform="translate(-22.23 -10.84)"/><path class="cls-42" d="M450.93,342.3l-4.06-4.06,7.11-7.1a2.86,2.86,0,0,1,4,0h0a2.87,2.87,0,0,1,0,4.06Z" transform="translate(-22.23 -10.84)"/><path class="cls-79" d="M436.33,365.31a3.54,3.54,0,0,1-3.54-3.54V333.31H454v28.46a3.55,3.55,0,0,1-3.54,3.54Z" transform="translate(-22.23 -10.84)"/><path class="cls-80" d="M453,303.34H433.82a3,3,0,0,0-3,2.89l-.32,6.89h25.84l-.33-6.89A3,3,0,0,0,453,303.34Z" transform="translate(-22.23 -10.84)"/><rect class="cls-81" x="421.16" y="289.48" width="7.66" height="3.03"/><path class="cls-82" d="M450.45,367.63H436.33a5.86,5.86,0,0,1-5.86-5.86V313.12h25.84v48.65A5.86,5.86,0,0,1,450.45,367.63Z" transform="translate(-22.23 -10.84)"/><path class="cls-42" d="M430.27,349.74h0A5.74,5.74,0,0,0,436,344v-3.75a5.74,5.74,0,0,0-5.74-5.75h0a3.58,3.58,0,0,0-3.58,3.58v8.09A3.58,3.58,0,0,0,430.27,349.74Z" transform="translate(-22.23 -10.84)"/><path class="cls-83" d="M1150.88,326.36h-44a3.23,3.23,0,0,1-3.23-3.23v-42h50.44v42A3.23,3.23,0,0,1,1150.88,326.36Z" transform="translate(-22.23 -10.84)"/><path class="cls-31" d="M1122.33,299.5v-6h13.61v3.18l-7.63,15.67h-4.58l7.28-15.24h-4.75v2.43Z" transform="translate(-22.23 -10.84)"/><path class="cls-84" d="M1151.85,273.07h-8.77V271.5a2.42,2.42,0,1,0-4.84,0v1.57h-18.71V271.5a2.42,2.42,0,0,0-2.42-2.42h0a2.42,2.42,0,0,0-2.42,2.42v1.57h-8.76a2.26,2.26,0,0,0-2.26,2.26v5.78h50.44v-5.78A2.26,2.26,0,0,0,1151.85,273.07Z" transform="translate(-22.23 -10.84)"/></g><g id="text"><image width="305" height="299" transform="translate(0 0) scale(0.7)" xlink:href="Health%20%26%20Wellness%20Logo.png"/><image width="265" height="92" transform="translate(1271.27 663.36) scale(0.69)" xlink:href="Rubi%20Baqueiro-logo.png"/></g></svg>